<?xml version="1.0" standalone="no"?>
<!DOCTYPE svg PUBLIC "-//W3C//DTD SVG 20010904//EN"
 "http://www.w3.org/TR/2001/REC-SVG-20010904/DTD/svg10.dtd">
<svg version="1.0" xmlns="http://www.w3.org/2000/svg"
 width="300.000000pt" height="300.000000pt" viewBox="0 0 300.000000 300.000000"
 preserveAspectRatio="xMidYMid meet">
<metadata>
Created by potrace 1.10, written by Peter Selinger 2001-2011
</metadata>
<g transform="translate(0.000000,300.000000) scale(0.100000,-0.100000)"
fill="#000000" stroke="none">
<path d="M1218 2974 c-246 -44 -504 -170 -709 -347 -279 -241 -480 -633 -494
-967 l-5 -105 15 103 c14 94 26 145 68 297 8 28 27 79 42 115 211 505 691 855
1240 906 33 3 62 7 64 10 10 9 -150 1 -221 -12z"/>
<path d="M1560 2987 c3 -3 32 -8 65 -11 138 -14 292 -51 405 -96 158 -63 340
-166 340 -192 0 -6 3 -9 6 -5 11 11 144 -104 221 -192 126 -143 262 -369 302
-503 34 -114 50 -179 56 -222 3 -27 8 -52 10 -55 2 -3 6 -40 9 -81 10 -116 19
-98 13 25 -20 355 -221 741 -516 988 -240 201 -539 328 -811 344 -58 3 -103 3
-100 0z"/>
<path d="M1573 2303 c-7 -2 -13 -8 -13 -13 0 -7 -195 -352 -220 -390 -5 -8
-14 -25 -20 -37 -5 -12 -20 -39 -33 -60 -81 -127 -246 -429 -246 -450 -1 -7 8
-22 19 -33 18 -18 33 -20 170 -20 l150 0 0 -31 c0 -17 -9 -87 -19 -157 -11
-70 -22 -147 -26 -172 -8 -63 -17 -121 -22 -145 -8 -41 -5 -88 9 -96 24 -16
94 -10 110 9 14 16 68 109 97 164 8 15 17 25 21 23 4 -2 7 2 7 9 0 7 20 47 44
89 24 43 53 95 65 116 11 21 36 65 55 97 240 417 246 428 229 459 -17 32 -34
35 -192 35 l-138 0 0 28 c0 15 12 104 25 197 46 309 51 365 35 375 -16 10 -86
12 -107 3z m102 -35 c-6 -28 -85 -566 -85 -582 0 -8 44 -10 155 -8 165 3 201
-4 192 -39 -3 -10 -121 -224 -264 -474 l-258 -454 -48 -1 c-44 0 -47 2 -42 23
6 26 85 564 85 581 0 8 -44 10 -152 8 -168 -3 -198 0 -198 25 0 9 85 166 188
347 104 182 222 391 263 463 l74 132 48 1 c44 0 47 -2 42 -22z"/>
<path d="M2980 1410 c0 -106 -58 -347 -117 -485 -34 -80 -99 -205 -112 -215
-3 -3 -19 -25 -35 -49 -116 -180 -353 -389 -531 -472 -142 -65 -256 -110 -306
-120 -30 -6 -71 -14 -91 -19 -21 -4 -38 -6 -38 -3 0 2 -8 -1 -17 -6 -10 -5
-52 -12 -93 -16 -114 -10 -99 -19 20 -12 342 20 727 218 967 496 166 193 271
397 334 649 19 77 38 282 26 282 -4 0 -7 -14 -7 -30z"/>
<path d="M13 1335 c18 -278 150 -582 360 -826 240 -278 625 -476 967 -496 121
-7 130 3 14 16 -168 19 -368 68 -385 93 -3 6 -10 10 -15 10 -44 3 -224 100
-325 175 -114 84 -221 182 -213 194 3 5 -1 9 -8 9 -15 1 -107 116 -159 200
-88 139 -171 344 -195 475 -2 11 -8 41 -13 66 -5 26 -13 75 -16 110 -9 102
-18 83 -12 -26z"/>
</g>
</svg>
